<?xml version="1.0" encoding="UTF-8"?>
<svg version="1.1" xmlns="http://www.w3.org/2000/svg" width="512" height="512">
<path d="M0 0 C1.5156958 0.34659668 1.5156958 0.34659668 3.06201172 0.70019531 C18.52651044 4.29448752 33.38048776 8.80699226 48 15 C48.8357959 15.35320313 49.6715918 15.70640625 50.53271484 16.0703125 C77.21454381 27.47096334 102.43236626 41.80647554 125.30908203 59.70410156 C128.15044221 61.88168456 131.07541115 63.93602265 134 66 C137.55038751 64.29231921 140.79398379 62.25801816 144.09765625 60.12109375 C147.57551456 58.07151401 150.60192352 57.78561076 154.5625 57.6875 C155.53316406 57.65011719 156.50382812 57.61273438 157.50390625 57.57421875 C167.76436026 58.82381594 173.99885295 64.13024468 181.0234375 71.33203125 C182.38633408 72.69698982 182.38633408 72.69698982 183.77676392 74.08952332 C185.68699467 76.00441287 187.5868309 77.92884036 189.47900391 79.86157227 C191.89102102 82.32466379 194.32242712 84.7674331 196.76123619 87.203969 C199.10708303 89.55083246 201.44001977 91.91030696 203.7734375 94.26953125 C204.64012054 95.13955276 205.50680359 96.00957428 206.39974976 96.90596008 C214.65735517 105.35909731 218.42832701 111.8900362 218.35546875 123.82421875 C217.78945322 128.88103883 215.63224188 132.7216801 213 137 C212.17435547 138.37865234 212.17435547 138.37865234 211.33203125 139.78515625 C210.89246094 140.51605469 210.45289063 141.24695313 210 142 C211.12535156 143.47146484 211.12535156 143.47146484 212.2734375 144.97265625 C219.20907478 154.09591482 225.80316432 163.35987438 232 173 C232.65226562 174.00804687 233.30453125 175.01609375 233.9765625 176.0546875 C252.40515527 205.25225217 267.35875378 237.23101156 275 271 C275.20882813 271.90266602 275.41765625 272.80533203 275.6328125 273.73535156 C278.5210708 286.70966376 279.36528251 299.44363929 279.375 312.6875 C279.37799103 313.7632428 279.37799103 313.7632428 279.38104248 314.86071777 C279.37478046 334.69539053 275.4065779 352.12629214 267 370 C266.24203125 371.65902344 266.24203125 371.65902344 265.46875 373.3515625 C264 376 264 376 261 378 C258.87890625 378.37109375 258.87890625 378.37109375 256.5625 378.4375 C255.80066406 378.47746094 255.03882813 378.51742188 254.25390625 378.55859375 C252 378 252 378 249.83203125 376.15234375 C247.21263657 371.64519768 246.80379036 367.2429736 246.125 362.125 C237.76256971 306.88354765 209.60562336 255.91857039 176 212 C175.04875816 210.74012739 174.09819651 209.47974082 173.1484375 208.21875 C168.65246484 202.27885769 164.02272626 196.50504104 159 191 C157.906875 191.639375 156.81375 192.27875 155.6875 192.9375 C150.59694728 195.47378245 145.64512652 196.03670433 140 196 C139.40065378 195.79375342 138.80130756 195.58750684 138.18379933 195.37501037 C135.49446983 194.60521823 133.77335267 194.50536574 131 195 C126.20599667 198.2394881 122.33893699 202.36790585 118.31663513 206.50100708 C117.05039187 207.76503804 115.78194638 209.02686612 114.51149613 210.28666866 C111.02421253 213.75739245 107.56893329 217.25853476 104.11798394 220.76533699 C100.39170726 224.54091346 96.63656739 228.28758351 92.88476562 232.0377655 C86.38618156 238.54134154 79.90602192 245.06282054 73.43780327 251.59659195 C64.07865224 261.05027301 54.69059284 270.47481049 45.29492641 279.89218484 C30.04291383 295.18073516 14.81227035 310.49038682 -0.40405273 325.81445312 C-15.17034904 340.68517416 -29.94279819 355.54972041 -44.72631836 370.40332031 C-46.09149822 371.77498534 -46.09149822 371.77498534 -47.48425747 373.17436077 C-57.42102262 383.157891 -67.36000989 393.13920543 -77.30132198 403.11820793 C-78.17517604 403.99538659 -79.0490301 404.87256524 -79.94936458 405.77632507 C-83.44287197 409.28308015 -86.93639047 412.7898241 -90.43017911 416.29629897 C-100.65924713 426.56265835 -110.88136759 436.83582383 -121.09115004 447.12136452 C-127.49689072 453.57438082 -133.90742367 460.02260739 -140.32173366 466.46710582 C-144.02290055 470.18621358 -147.72139839 473.90788529 -151.41322899 477.63626289 C-154.79375307 481.0502459 -158.18115061 484.45725021 -161.57407974 487.85890363 C-162.79937191 489.08986394 -164.02208266 490.3234004 -165.24191231 491.55977406 C-182.54665887 509.09189954 -182.54665887 509.09189954 -196.06420898 509.38110352 C-208.1731164 509.34729109 -215.78588868 507.07322836 -224.796875 498.515625 C-232.6823138 489.51168425 -233.68701898 479.49271032 -233.18798828 468.02001953 C-232.79753542 463.82442609 -231.25898884 460.49306607 -229 457 C-228.42267067 456.08256435 -227.84534135 455.1651287 -227.25051719 454.21989197 C-224.96884131 450.95542019 -222.55449761 448.32436377 -219.72609997 445.5246973 C-219.20454265 445.00562584 -218.68298533 444.48655437 -218.14562324 443.95175347 C-216.40026936 442.2171292 -214.64779956 440.48987839 -212.89530945 438.76246643 C-211.62850188 437.50624698 -210.36216143 436.24955633 -209.09624797 434.99243587 C-206.34469931 432.26191397 -203.58999479 429.53462957 -200.83284378 426.80976486 C-196.34663746 422.37597306 -191.86747518 417.93510882 -187.389328 413.49317932 C-182.5662023 408.70976387 -177.74250074 403.9269343 -172.91641366 399.14650643 C-160.95282732 387.29601657 -149.00428911 375.43051058 -137.06489563 363.5556488 C-136.20138236 362.69686459 -135.33786909 361.83808038 -134.44818874 360.95327241 C-130.03221554 356.56147695 -125.6164092 352.16951378 -121.20072329 347.77742946 C-112.10337867 338.72873085 -103.00563279 329.68043674 -93.90600586 320.6340332 C-92.99287743 319.72623275 -92.07974901 318.81843229 -91.13895003 317.88312273 C-76.33683172 303.16893627 -61.50958211 288.48030904 -46.67385032 273.80002404 C-31.44222034 258.72665014 -16.24117787 243.62291509 -1.06731445 228.49138969 C8.29306959 219.15917781 17.6770013 209.8519933 27.09253534 200.57542115 C33.54215669 194.21661091 39.96212682 187.82884458 46.35951028 181.41748536 C50.05185209 177.71886002 53.75600764 174.03453066 57.49616241 170.38420868 C60.92163507 167.04046495 64.3079919 163.66167848 67.6673012 160.25150656 C68.8873802 159.02606126 70.12108371 157.81399711 71.36942188 156.61735148 C78.44249268 149.98992398 78.44249268 149.98992398 81.428635 141.03750217 C81.32407893 138.39035624 80.95550116 136.00179018 80.49381036 133.37236923 C79.59585058 127.23995039 81.63090468 122.05364298 85 117 C76.08698959 108.33902845 66.06300318 101.24390623 56 94 C55.26265625 93.46407227 54.5253125 92.92814453 53.765625 92.37597656 C43.16777132 84.67416045 32.2883283 77.6445521 21 71 C20.15260254 70.49355957 19.30520508 69.98711914 18.43212891 69.46533203 C-14.54369302 49.81771687 -50.77447774 34.6523725 -88.99389648 29.51855469 C-98.47952951 28.13337618 -98.47952951 28.13337618 -102 24 C-102.62890625 21.78125 -102.62890625 21.78125 -102.5625 19.5 C-102.56378906 18.7471875 -102.56507813 17.994375 -102.56640625 17.21875 C-101.77237517 14.10833859 -100.49223449 13.01327086 -98 11 C-95.6915794 9.72097231 -93.45846425 8.58006508 -91.0625 7.5 C-90.4037085 7.19811768 -89.74491699 6.89623535 -89.06616211 6.58520508 C-82.87377888 3.81776326 -76.54640672 1.7683336 -70 0 C-69.25105469 -0.21398437 -68.50210938 -0.42796875 -67.73046875 -0.6484375 C-47.32645488 -6.20219275 -20.40408593 -4.81547571 0 0 Z " fill="#010100" transform="translate(233,3)"/>
<path d="M0 0 C3.71713736 1.73760147 6.08741012 3.85676878 8.984375 6.7890625 C9.67506073 7.48399307 9.67506073 7.48399307 10.37969971 8.19296265 C11.84125078 9.66565898 13.29567168 11.14517403 14.75 12.625 C15.74302611 13.62806322 16.73651089 14.63067257 17.73046875 15.6328125 C20.15897941 18.08330835 22.58114675 20.5399667 25 23 C23.41174541 26.85500612 20.95436054 29.29948643 18.02857018 32.23149204 C17.51539366 32.74847423 17.00221714 33.26545642 16.47348982 33.79810473 C14.74448342 35.53745653 13.00841506 37.26958361 11.27230835 39.00184631 C10.02192426 40.25668119 8.77197225 41.51194673 7.52241671 42.76760668 C4.08083399 46.22339878 0.63298576 49.67288036 -2.81592774 53.12135422 C-6.5319658 56.83903789 -10.24228648 60.56242027 -13.95339966 64.28501892 C-22.07206286 72.42655077 -30.19820191 80.56059373 -38.32577944 88.69322515 C-43.39891895 93.76961938 -48.47042338 98.8476449 -53.54157639 103.92602348 C-67.57767891 117.98169402 -81.6153621 132.03578036 -95.65979958 146.08312321 C-96.55887066 146.98238186 -97.45794174 147.88164051 -98.3842574 148.80814942 C-100.20696282 150.6312211 -102.02966952 152.4542915 -103.85237749 154.27736063 C-104.75719155 155.1823575 -105.66200561 156.08735437 -106.59423828 157.01977539 C-107.95311439 158.37892232 -107.95311439 158.37892232 -109.33944254 159.76552676 C-124.02249619 174.45212303 -138.693771 189.15042486 -153.35989268 203.85392768 C-168.41139827 218.94348985 -183.47221929 234.0237002 -198.54261434 249.09439749 C-207.00637808 257.55874638 -215.46612606 266.02702362 -223.91572952 274.50551033 C-231.10993392 281.72419306 -238.31264669 288.93424813 -245.52663191 296.13316519 C-249.20784078 299.80719088 -252.88487368 303.48515678 -256.55114746 307.17409134 C-259.90734108 310.55083006 -263.27485566 313.91583015 -266.65177219 317.27184122 C-267.87156054 318.48812621 -269.08713513 319.70865483 -270.29802532 320.9337988 C-271.94521961 322.59912659 -273.60711738 324.24827735 -275.27352333 325.8943491 C-276.19288127 326.81452149 -277.1122392 327.73469388 -278.05945647 328.68275028 C-282.49422483 332.1775007 -286.94502402 333.706432 -292.5 334.5 C-298.62190291 333.62544244 -302.62548574 330.72695382 -306.4375 325.9375 C-308.96951543 321.17731099 -309.54315552 317.43155524 -309 312 C-304.83757395 303.85479106 -298.27549779 297.86532357 -291.85771179 291.49694824 C-290.59881674 290.23674396 -289.34058156 288.97588021 -288.08294803 287.71441698 C-284.63487595 284.25965109 -281.17754382 280.81428546 -277.71860301 277.37040615 C-273.98656601 273.65134108 -270.26321975 269.92359296 -266.5388031 266.19689941 C-260.08802721 259.74455152 -253.6317873 253.2977132 -247.17178917 246.854599 C-237.83176088 237.53896603 -228.50004099 228.21504665 -219.17031918 218.88909298 C-204.03273944 203.75807688 -188.88847425 188.63377051 -173.73999023 173.51367188 C-159.02586137 158.82708583 -144.31489096 144.13734792 -129.6081543 129.44335938 C-128.24805474 128.08444207 -128.24805474 128.08444207 -126.86047842 126.6980719 C-122.31162233 122.15313096 -117.76282823 117.60812797 -113.21406496 113.06309414 C-75.48565013 75.36577249 -37.74637834 37.67933416 0 0 Z " fill="#785447" transform="translate(326,161)"/>
<path d="M0 0 C2.25892639 1.26359558 2.25892639 1.26359558 4.01586914 3.02416992 C4.67708771 3.66623383 5.33830627 4.30829773 6.01956177 4.96981812 C6.67310638 5.63977814 7.326651 6.30973816 8 7 C8.94998367 7.91780746 8.94998367 7.91780746 9.91915894 8.85415649 C11.88376777 10.75255561 13.81730258 12.67853414 15.74609375 14.61328125 C16.79096703 15.65671944 16.79096703 15.65671944 17.85694885 16.72123718 C19.31267999 18.17629346 20.7671718 19.63259063 22.22045898 21.09008789 C24.45247268 23.32750895 26.68984135 25.55947677 28.92773438 27.79101562 C30.34667534 29.21061654 31.76530654 30.63052717 33.18359375 32.05078125 C33.85329697 32.71846024 34.52300018 33.38613922 35.21299744 34.0740509 C35.82776443 34.69197006 36.44253143 35.30988922 37.07592773 35.9465332 C37.61805405 36.48945511 38.16018036 37.03237701 38.71873474 37.5917511 C41.30089613 40.42982535 41.38513611 43.16347044 41.32510567 46.93145752 C40.76665561 50.48469507 38.73008498 52.28016439 36.24584961 54.7734375 C35.48730682 55.55059868 35.48730682 55.55059868 34.71343994 56.34346008 C33.04574263 58.04113443 31.35078373 59.7081254 29.65234375 61.375 C28.47959586 62.55059933 27.30811011 63.72745898 26.13783264 64.90551758 C23.68467745 67.36594244 21.21794332 69.81162001 18.74047852 72.24755859 C15.5694202 75.3674117 12.43307753 78.51966237 9.3059454 81.68347168 C6.89347535 84.11737306 4.46434988 86.53407701 2.02978706 88.94586182 C0.86661086 90.10186616 -0.29155408 91.26293601 -1.44450569 92.42913818 C-3.05994789 94.05768587 -4.69624854 95.66190625 -6.34008789 97.26171875 C-7.26608292 98.17912842 -8.19207794 99.09653809 -9.14613342 100.04174805 C-12.74520956 102.51134418 -14.7162993 102.6115251 -19 102 C-21.15357971 100.74409485 -21.15357971 100.74409485 -22.93969727 98.98950195 C-23.61001984 98.34735748 -24.28034241 97.70521301 -24.97097778 97.04360962 C-25.64055511 96.36921844 -26.31013245 95.69482727 -27 95 C-27.64742157 94.3753183 -28.29484314 93.7506366 -28.96188354 93.10702515 C-30.98384886 91.14746598 -32.97682221 89.1619309 -34.96484375 87.16796875 C-35.68362198 86.45014725 -36.40240021 85.73232574 -37.14295959 84.99275208 C-38.6457693 83.49061748 -40.14733866 81.98724103 -41.64770508 80.48266602 C-43.9521476 78.17281804 -46.26194389 75.86841909 -48.57226562 73.56445312 C-50.0367795 72.09927928 -51.50098358 70.63379571 -52.96484375 69.16796875 C-53.65642075 68.47841599 -54.34799774 67.78886322 -55.06053162 67.07841492 C-55.69531937 66.44047501 -56.33010712 65.8025351 -56.98413086 65.14526367 C-57.54402206 64.58457687 -58.10391327 64.02389008 -58.68077087 63.44621277 C-60.77839067 61.14668461 -61.01101077 59.8995684 -61.35864258 56.72874451 C-60.90508259 52.01316017 -59.56602042 50.67531207 -56.26171875 47.34008789 C-55.75762985 46.82212646 -55.25354095 46.30416504 -54.73417664 45.77050781 C-53.06924142 44.06977739 -51.37999951 42.39592534 -49.6875 40.72265625 C-48.51743796 39.54533514 -47.34834365 38.36705153 -46.18017578 37.18785095 C-43.72996908 34.72282684 -41.26731989 32.27113442 -38.79541016 29.82788086 C-35.63334826 26.70008862 -32.50632227 23.5397437 -29.38807678 20.36834049 C-26.98130235 17.92871377 -24.55592556 15.50827936 -22.12466431 13.09307671 C-20.9640665 11.93529396 -19.80949221 10.77143952 -18.66122437 9.60142708 C-17.05053461 7.96560287 -15.41626043 6.35761634 -13.7734375 4.75415039 C-12.84966309 3.83372452 -11.92588867 2.91329865 -10.97412109 1.96498108 C-6.87290679 -0.74466263 -4.85470332 -0.6066832 0 0 Z " fill="#FDC007" transform="translate(392,79)"/>
<path d="M0 0 C1.62035156 0.02513672 1.62035156 0.02513672 3.2734375 0.05078125 C53.70589443 2.41691529 106.09963086 30.38440163 145.05078125 60.70703125 C147.95635829 63.02347803 147.95635829 63.02347803 151 65 C149.43717018 68.76603869 147.0936525 71.13639151 144.2109375 73.984375 C143.74765045 74.44483215 143.2843634 74.90528931 142.80703735 75.37969971 C141.33434102 76.84125078 139.85482597 78.29567168 138.375 79.75 C137.37193678 80.74302611 136.36932743 81.73651089 135.3671875 82.73046875 C132.91669165 85.15897941 130.4600333 87.58114675 128 90 C124.23006613 87.51392156 120.68843048 84.98966059 117.25 82.0625 C110.14787488 76.1875448 102.65186793 70.88289723 95.14697266 65.53857422 C93.27723307 64.19867214 91.42210913 62.84242501 89.57421875 61.47265625 C53.17116973 34.7593077 12.50600236 14.97058645 -31 3 C-25.1183596 -2.8816404 -8.06324521 -0.15116362 0 0 Z " fill="#CCD5D8" transform="translate(204,17)"/>
<path d="M0 0 C1.21411133 1.33496094 1.21411133 1.33496094 2.58203125 3.234375 C3.09515869 3.94303711 3.60828613 4.65169922 4.13696289 5.38183594 C4.68989014 6.16333008 5.24281738 6.94482422 5.8125 7.75 C6.3892749 8.55985352 6.9660498 9.36970703 7.56030273 10.20410156 C42.12263976 59.11386551 69.63715038 115.77864187 64.4140625 177.1015625 C64 179 64 179 62 181 C61.81002441 180.33806641 61.62004883 179.67613281 61.42431641 178.99414062 C56.64005674 162.49199392 50.9805909 146.69689629 44 131 C43.66532715 130.23429688 43.3306543 129.46859375 42.98583984 128.6796875 C27.26555951 92.85926623 4.12243303 61.01990451 -19.9375 30.4375 C-20.43056641 29.81037109 -20.92363281 29.18324219 -21.43164062 28.53710938 C-22.62088492 27.02457537 -23.81041071 25.51226269 -25 24 C-20.33992095 18.41235744 -15.39136454 13.20827395 -10.25 8.0625 C-9.48300781 7.28326172 -8.71601563 6.50402344 -7.92578125 5.70117188 C-7.19230469 4.96576172 -6.45882813 4.23035156 -5.703125 3.47265625 C-5.03958008 2.80500244 -4.37603516 2.13734863 -3.69238281 1.44946289 C-2 0 -2 0 0 0 Z " fill="#CCD5D9" transform="translate(430,157)"/>
<path d="M0 0 C1.12894876 0.93274109 2.25300876 1.87140122 3.375 2.8125 C4.00148438 3.33457031 4.62796875 3.85664062 5.2734375 4.39453125 C8.22474324 7.13884496 8.97700877 8.79158389 9.4221344 12.82666016 C9.28863292 17.44401128 7.51262998 19.49477247 4.24584961 22.7734375 C3.74015442 23.29154495 3.23445923 23.8096524 2.71343994 24.34346008 C1.04574263 26.04113443 -0.64921627 27.7081254 -2.34765625 29.375 C-3.52040414 30.55059933 -4.69188989 31.72745898 -5.86216736 32.90551758 C-8.31532255 35.36594244 -10.78205668 37.81162001 -13.25952148 40.24755859 C-16.4305798 43.3674117 -19.56692247 46.51966237 -22.6940546 49.68347168 C-25.10652465 52.11737306 -27.53565012 54.53407701 -29.97021294 56.94586182 C-31.13338914 58.10186616 -32.29155408 59.26293601 -33.44450569 60.42913818 C-35.05994789 62.05768587 -36.69624854 63.66190625 -38.34008789 65.26171875 C-39.26608292 66.17912842 -40.19207794 67.09653809 -41.14613342 68.04174805 C-44.70543519 70.48405201 -46.76583719 70.49771019 -51 70 C-53.3984375 68.5390625 -53.3984375 68.5390625 -55.375 66.625 C-56.04273438 65.99851562 -56.71046875 65.37203125 -57.3984375 64.7265625 C-59 63 -59 63 -60 61 C-59.55764008 60.62787888 -59.11528015 60.25575775 -58.65951538 59.87236023 C-52.2594764 54.38903221 -46.30885636 48.47270917 -40.3515625 42.51953125 C-39.2468462 41.41803498 -38.14205771 40.3166111 -37.03720093 39.21525574 C-34.7377132 36.92171575 -32.44026056 34.6261594 -30.14404297 32.3293457 C-27.20362953 29.38883 -24.25635549 26.45529388 -21.30733681 23.52341175 C-19.03055123 21.25773762 -16.75831794 18.98754027 -14.48734665 16.71603966 C-13.40210672 15.63197782 -12.31524934 14.54953263 -11.22673416 13.46875954 C-9.70967695 11.96150023 -8.19908688 10.44803661 -6.68994141 8.93286133 C-5.83026764 8.07461258 -4.97059387 7.21636383 -4.08486938 6.33210754 C-2.23023891 4.25754223 -1.06469836 2.54802731 0 0 Z " fill="#FEB201" transform="translate(424,111)"/>
</svg>
